<svg xmlns="http://www.w3.org/2000/svg" width="160" height="120" viewBox="0 0 160 120">
  <defs>
    <linearGradient id="g1" x1="0" x2="1">
      <stop offset="0" stop-color="#ffd1f0"/>
      <stop offset="1" stop-color="#d1f0ff"/>
    </linearGradient>
  </defs>
  <g transform="translate(10,10)">
    <!-- body -->
    <ellipse cx="60" cy="60" rx="40" ry="28" fill="#fff" stroke="#ffd1f0" stroke-width="2"/>
    <!-- head -->
    <circle cx="102" cy="48" r="14" fill="#fff" stroke="#ffd1f0" stroke-width="2"/>
    <!-- eye -->
    <circle cx="106" cy="46" r="2.5" fill="#333"/>
    <!-- horn -->
    <polygon points="100,30 106,48 94,48" fill="#ffd27a" stroke="#e6b04d" stroke-width="1"/>
    <!-- wings -->
    <path d="M40 50 q-30 -20 -10 -36 q20 10 30 22 q10 10 -10 14" fill="url(#g1)" stroke="#b0e0ff"/>
    <!-- mane -->
    <path d="M72 36 q8 -12 22 -8 q-6 6 -6 12 q-12 8 -16 4" fill="#ff9ad1"/>
    <path d="M76 44 q10 -6 18 -2 q-4 6 -8 8 q-8 -2 -10 -6" fill="#9ad1ff"/>
    <!-- tail -->
    <path d="M30 68 q-12 10 -2 18 q10 -6 18 -8 q-6 -10 -6 -20" fill="#ffd1f0"/>
    <!-- legs -->
    <rect x="48" y="80" width="6" height="16" rx="2" fill="#fff" stroke="#ffd1f0"/>
    <rect x="72" y="80" width="6" height="16" rx="2" fill="#fff" stroke="#ffd1f0"/>
  </g>
</svg>
